<?xml version="1.0" encoding="UTF-8" standalone="no"?>
<svg
   xmlns:dc="http://purl.org/dc/elements/1.1/"
   xmlns:cc="http://creativecommons.org/ns#"
   xmlns:rdf="http://www.w3.org/1999/02/22-rdf-syntax-ns#"
   xmlns:svg="http://www.w3.org/2000/svg"
   xmlns="http://www.w3.org/2000/svg"
   xmlns:sodipodi="http://sodipodi.sourceforge.net/DTD/sodipodi-0.dtd"
   xmlns:inkscape="http://www.inkscape.org/namespaces/inkscape"
   version="1.0"
   width="14in"
   height="8.5in"
   viewBox="0 0 1344 816"
   preserveAspectRatio="xMidYMid meet"
   id="svg82"
   sodipodi:docname="logoMD.svg"
   inkscape:version="1.0.2 (e86c870879, 2021-01-15)">
  <metadata
     id="metadata88">
    <rdf:RDF>
      <cc:Work
         rdf:about="">
        <dc:format>image/svg+xml</dc:format>
        <dc:type
           rdf:resource="http://purl.org/dc/dcmitype/StillImage" />
        <dc:title></dc:title>
      </cc:Work>
    </rdf:RDF>
  </metadata>
  <defs
     id="defs86" />
  <sodipodi:namedview
     pagecolor="#ffffff"
     bordercolor="#666666"
     borderopacity="1"
     objecttolerance="10"
     gridtolerance="10"
     guidetolerance="10"
     inkscape:pageopacity="0"
     inkscape:pageshadow="2"
     inkscape:window-width="1366"
     inkscape:window-height="768"
     id="namedview84"
     showgrid="false"
     inkscape:zoom="0.32745778"
     inkscape:cx="161.35645"
     inkscape:cy="109.09391"
     inkscape:window-x="1360"
     inkscape:window-y="0"
     inkscape:window-maximized="0"
     inkscape:current-layer="svg82"
     inkscape:document-rotation="0"
     units="in" />
  <g
     id="g68"
     style="image-rendering:optimizeQuality"
     transform="matrix(2.2730916,0,0,2.2730916,-29.153798,-3.8192748)">
    <g
       fill="#f9b21f"
       id="g36">
      <path
         d="M 135.2,118.8 134,117.6 V 79.3 41 l 2.8,-1.1 2.7,-1.1 1.5,1 1.5,0.9 0.3,37.4 0.3,37.4 -0.6,2.3 -0.5,2.2 h -2.8 -2.8 z"
         id="path16" />
      <path
         d="m 200.6,98 c -1.6,-0.5 -4,-1.9 -5.4,-3.2 l -2.5,-2.3 -1.8,-4 -1.9,-4 V 74.4 64.3 l 2.3,-4.2 2.2,-4.3 4.3,-2.4 4.3,-2.4 h 8.7 8.8 l 2.2,1.6 2.2,1.5 v 2.8 2.7 l -1.1,1.1 -1.1,1.1 -8.2,-0.5 -8.3,-0.6 -2.1,2.4 -2.2,2.3 v 9.2 9.1 l 2.1,2.7 2,2.6 h 3.4 3.3 l 0.4,-3.5 0.4,-3.5 -1,-1 -1,-1 h -2.3 -2.3 v -4 -4 l 2.3,-0.5 c 1.2,-0.3 5.2,-0.5 8.7,-0.3 l 6.5,0.3 v 12 12 l -2.8,1.3 -2.8,1.4 -7.2,0.4 -7.2,0.4 z"
         id="path18" />
      <path
         d="m 285.5,97.2 -4.1,-1.9 -1.5,-2.4 c -0.9,-1.3 -2.1,-4.5 -2.7,-7.1 L 276,81.1 V 68 54.9 l 1,-2 1.1,-1.9 h 4.4 4.4 l 1.1,1.9 1,2 v 15.3 15.4 l 1.2,1.2 1.2,1.2 h 3.3 3.2 l 1.3,-2.2 1.2,-2.3 0.5,-16 0.6,-16 h 5 5 l 0.3,17.2 0.2,17.2 -2,4.4 -2,4.3 -3.1,1.8 -3.1,1.8 -6.2,0.5 -6.1,0.4 z"
         id="path20" />
      <path
         d="m 371.5,98.3 c -3,-0.8 -7.2,-4 -9.5,-7.4 l -2.2,-2.9 -0.9,-6.9 -1,-6.9 1,-6.2 1,-6.3 2.3,-3.3 2.2,-3.3 3.9,-2 3.9,-2.1 h 5.8 5.8 l 3.3,1.4 3.4,1.4 2.1,2.4 c 1.2,1.2 2.7,3.3 3.3,4.6 l 1.2,2.3 0.6,6.8 0.6,6.8 -0.7,5.6 -0.7,5.6 -2.2,3.2 -2.2,3.3 -3.3,1.9 -3.3,1.9 -6.2,0.4 c -3.4,0.1 -7.1,0 -8.2,-0.3 z m 11.8,-11.8 1.5,-1.4 0.7,-5 0.7,-4.9 -0.7,-5.6 -0.7,-5.7 -2.1,-1.4 -2.1,-1.5 h -2.7 -2.8 l -2,2.6 -2.1,2.7 v 8.8 8.9 l 2,2 2,2 h 3.4 3.5 z"
         id="path22" />
      <path
         d="m 533.5,98.1 c -1.6,-0.5 -4.2,-1.3 -5.7,-1.9 L 525,95 v -2 c 0,-1.2 0.7,-3.4 1.5,-5.1 l 1.6,-2.9 1.7,0.9 c 1,0.5 4.5,1.2 7.7,1.6 l 6,0.6 1.5,-1 1.5,-1 -1.1,-1.8 -1.1,-1.8 -7.4,-4 -7.3,-4 -2.3,-3.4 -2.3,-3.4 v -3.2 -3.2 l 2.3,-3.3 2.2,-3.4 3,-1.7 3,-1.8 h 7.3 l 7.3,-0.1 2.9,1.5 3,1.6 V 56 c 0,1 -0.5,3.1 -1.2,4.5 l -1.2,2.7 -2.5,-0.7 c -1.5,-0.3 -4.6,-0.8 -7.1,-1.1 l -4.6,-0.6 -1.3,1.6 -1.3,1.6 1.2,1.5 c 0.7,0.8 4,2.8 7.4,4.5 l 6.1,2.9 2.1,2.3 c 1.2,1.3 2.7,3.3 3.3,4.5 l 1.1,2.2 v 2.9 2.9 l -2.2,3.3 c -1.3,1.8 -3.5,4.2 -4.9,5.2 l -2.6,2 -5.9,0.3 -5.9,0.4 z"
         id="path24" />
      <path
         d="m 573,97.5 c -6.8,-3.1 -9,-6.6 -11.1,-17.6 l -1.2,-6.6 1.1,-3.3 c 0.7,-1.8 1.2,-4.4 1.2,-5.7 V 62 l 2.3,-3.5 2.2,-3.4 3.8,-2 3.9,-2.1 h 8.3 8.3 l 2.2,1.8 2.3,1.8 -1.3,3.6 -1.3,3.7 -6.9,-0.6 -6.9,-0.6 -2.4,1.3 -2.3,1.2 -0.7,5.8 -0.7,5.8 0.7,5.6 0.7,5.7 2.5,1.6 2.4,1.6 4.2,-1.3 c 2.3,-0.6 5.2,-1.6 6.4,-2 l 2.1,-0.9 1.5,1.7 1.6,1.7 0.3,3 0.3,3 -3.8,1.9 -3.9,1.8 -6.1,0.4 -6.2,0.4 z"
         id="path26" />
      <path
         d="M 233.2,96.8 232,95.6 v -20 -20.1 l 0.6,-2.2 0.6,-2.3 h 11.5 11.5 l 3.9,2.2 3.9,2.2 2,4.1 2,4.1 v 2.7 2.8 l -1.4,3.3 -1.4,3.3 -2.8,2.6 -2.8,2.7 1.8,3.2 c 1.1,1.8 3.2,5.3 4.8,7.7 l 2.9,4.4 -1.3,0.8 -1.3,0.9 h -4.7 -4.7 l -1.8,-2.3 c -1,-1.3 -2.9,-4.7 -4.2,-7.5 l -2.4,-5.1 -1.4,-0.6 -1.5,-0.5 -0.9,0.6 -0.9,0.5 v 6.9 6.8 l -1.6,0.6 c -0.9,0.3 -3,0.6 -4.8,0.6 h -3.2 z m 21.3,-30.3 v -5 h -5 -5 l -0.3,5.3 -0.3,5.3 5.3,-0.3 5.3,-0.3 z"
         id="path28" />
      <path
         d="m 322.4,97.2 -1.1,-0.7 V 75 l -0.1,-21.5 1,-1.2 1,-1.3 h 11.1 11 l 3.5,2.6 3.4,2.7 1.4,3.3 1.4,3.3 v 4.6 4.6 l -1.4,3.3 -1.4,3.3 -3.4,2.7 -3.5,2.6 h -6.1 -6.2 v 5.4 c 0,3 -0.3,6.1 -0.6,7 l -0.6,1.6 h -4.2 -4.1 z m 19.4,-24.4 1.2,-1.2 v -4.1 -4.1 l -1.2,-1.2 -1.2,-1.2 h -3.8 -3.8 v 6.5 6.5 h 3.8 3.8 z"
         id="path30" />
      <path
         d="M 421.3,97.4 420,96.8 V 75.6 54.4 l 1.3,-1.7 1.2,-1.8 13,0.3 13,0.3 v 5 5 l -8,0.1 -8,0.1 -0.3,4.2 -0.3,4.1 h 7.5 7.6 v 5 5 h -7.5 -7.4 l -0.3,8.8 -0.3,8.7 -4.5,0.2 c -2.5,0.1 -5.1,0 -5.7,-0.3 z"
         id="path32" />
      <path
         d="m 449.5,97.1 -0.5,-1 0.9,-3.8 c 1.1,-4.2 2.7,-10.2 4.1,-14.8 2.5,-8.6 5.1,-17.7 5.7,-20.5 0.3,-1.4 1.2,-3.3 2.1,-4.2 l 1.5,-1.8 h 4.6 4.6 l 1.2,0.8 1.2,0.7 1.4,4.5 c 3.3,10.2 7.6,25.9 8.4,30.3 l 0.5,2.7 h 0.9 c 0.5,0 1.1,-0.6 1.3,-1.2 0.2,-0.7 0.9,-3.3 1.6,-5.8 0.6,-2.5 1.6,-5.3 2.1,-6.2 0.5,-1 0.9,-2.9 0.9,-4.2 v -2.5 l 1,-0.6 1,-0.6 v -2.5 c 0,-1.3 0.4,-3.2 0.9,-4.2 0.5,-0.9 1.5,-3.7 2.3,-6.2 l 1.5,-4.5 4.3,-0.3 c 2.4,-0.2 5.4,-0.1 6.7,0.3 L 512,52 v 2 1.9 l 1,0.6 1,0.6 v 2.9 2.9 l 0.9,0.5 c 0.5,0.3 1.1,1.8 1.4,3.3 0.3,1.6 1,4.4 1.5,6.3 0.6,1.9 2.2,7.9 3.6,13.3 l 2.7,9.8 -0.6,0.9 -0.6,1 h -4.3 -4.4 L 513,96.5 c -0.7,-0.8 -1.6,-3 -1.9,-4.8 l -0.7,-3.2 -5.5,-0.3 -5.6,-0.3 -0.6,3.6 c -0.3,2 -1.1,4.3 -1.8,5.1 L 495.8,98 H 487 c -4.9,0 -9.5,-0.3 -10.4,-0.6 L 475,96.8 v -2.7 -2.7 l -1.3,-1.8 -1.3,-1.7 -4.9,0.3 -4.9,0.3 -0.9,3.5 c -0.5,1.9 -1.3,4.1 -1.9,4.8 l -1,1.2 h -4.4 -4.3 z m 21.1,-21.8 c -0.4,-1.6 -1,-4.1 -1.3,-5.7 l -0.6,-2.9 -1.3,2.4 -1.3,2.4 -0.1,3.3 V 78 h 2.6 2.6 z m 36,-2.5 c -0.4,-2.8 -1,-5.6 -1.3,-6.2 l -0.7,-1 -1.2,5.4 c -1.4,6.2 -1.2,7 1.8,7 h 2.1 z"
         id="path34" />
    </g>
    <g
       fill="#0a0806"
       id="g44">
      <path
         d="M 36.7,154.2 35,152.3 v -3.4 -3.5 l -1.2,-1.3 -1.3,-1.2 0.3,-28.3 L 33.2,86.2 32.1,85.6 31,84.9 V 80.5 76 l 1.2,-4.4 1.2,-4.5 -3,-3.8 C 26,57.8 25.4,56.4 24.1,47 l -1.2,-8.5 1,-2.6 1,-2.7 2.9,-2.1 C 29.5,30 31.1,29 31.5,29 c 0.4,0 1.5,-1 2.6,-2.3 l 1.8,-2.2 0.1,1.8 v 1.8 l 3.2,3.4 c 1.7,1.9 3.5,3.5 3.9,3.5 L 45.927072,40.046408 43,32.4 l -1,-2.6 0.6,-0.9 0.6,-1 1.3,1.1 1.4,1.1 -0.6,1.5 -0.5,1.4 1,1.3 c 0.6,0.6 1.2,2.3 1.4,3.6 l 0.3,2.4 1.3,0.5 1.2,0.4 v -2.6 -2.5 l -1,-0.6 -1,-0.6 v -2.4 -2.4 l -1,-0.6 c -0.5,-0.3 -1,-1.1 -1,-1.6 v -1 l 1.9,1.1 c 1.1,0.5 3.1,1 4.4,1 h 2.5 l 1,1.3 c 0.5,0.6 2.2,4.8 3.7,9.2 2.8,8.5 4,10.5 6,10.5 h 1.3 l 0.5,-2 0.5,-2 h 2.1 2.1 v 1.5 1.5 h 1.1 c 0.5,0 2.9,-0.9 5.2,-1.9 2.3,-1 6,-2.6 8.2,-3.5 l 4,-1.6 2.1,-2.6 2.2,-2.7 1.1,0.7 c 1.7,1.1 1.4,1.9 -3.7,8.7 -2.6,3.5 -5.4,7.9 -6.2,9.7 l -1.3,3.4 -2.3,1.4 -2.3,1.5 -5.5,7.4 -5.5,7.3 -3,0.7 c -1.6,0.3 -3.4,1.2 -4,1.8 l -0.9,1.2 -0.1,20.5 -0.2,20.5 0.8,7.5 0.8,7.4 4.3,2.9 c 2.3,1.5 4.2,3.3 4.2,3.8 V 144 H 66.6 62.2 L 61,142.5 59.8,141 h -2.9 -2.8 l -0.5,-0.9 c -0.4,-0.5 -1.1,-7.4 -1.7,-15.3 -0.6,-7.8 -1.4,-16.5 -1.7,-19.3 l -0.7,-5 -1.6,-0.3 -1.7,-0.3 -2,6.8 -2.1,6.8 -0.7,9.2 -0.7,9.2 1.2,4.3 1.2,4.3 -1,2.9 -1.1,2.8 1.2,4 1.2,4 -1.5,0.9 c -2.1,1.3 -3.4,1.1 -5.2,-0.9 z M 68.8,73.7 C 69.9,73 79.8,60.2 87.3,49.9 l 2.7,-3.8 -0.9,-0.6 -1,-0.6 -9.3,4.5 -9.3,4.4 -5,6.1 c -2.7,3.4 -5.8,7.2 -6.9,8.4 -1,1.2 -2.2,3.2 -2.7,4.5 L 54,75 l -3.6,2.2 -3.6,2.1 1.2,0.7 1.2,0.8 9.2,-3.2 c 5,-1.7 9.7,-3.5 10.4,-3.9 z"
         id="path38"
         sodipodi:nodetypes="ccccccccccccccccccccscccccsccccccccccccccccccccssccscccscccccccssccccccccccccccccccccscccccccccccccccccccccccccccccccccccccccccc" />
      <path
         d="M 135.2,118.8 134,117.6 V 79.3 41 l 2.6,-1 c 3.2,-1.2 3.4,-1.2 3.4,0 v 1 h -1.5 -1.5 v 38.1 38.2 l 1.8,1.3 1.7,1.3 -2,0.1 h -2.1 z"
         id="path40" />
      <path
         d="M 40,25.9 37.4,25 36,20.3 34.7,15.6 V 11.3 L 33.345773,11.239722 34.7,7 36.5,5 38.3,3 h 2.7 2.6 l 1.6,1.3 C 46,4.9 47.3,7 48,8.8 l 1.3,3.3 -1.2,1.2 -1.1,1.1 v 2.7 2.7 l -1.5,3.6 c -1.6,3.9 -1.7,3.9 -5.5,2.5 z"
         id="path42"
         sodipodi:nodetypes="cccccccccccccccccccc" />
    </g>
    <g
       fill="#fde2b7"
       id="g80">
      <path
         d="m 136.5,119 0.7,-1.1 1.6,0.3 1.7,0.3 0.3,-38.7 0.2,-38.8 -3.2,-0.1 -3.3,-0.1 2.8,-1 2.8,-1 1.4,1.2 1.5,1.2 V 79 116.8 l -0.6,1.6 -0.6,1.6 h -3 -2.9 z"
         id="path48" />
      <path
         d="m 200.6,98 c -1.6,-0.5 -4,-1.9 -5.4,-3.2 l -2.5,-2.3 -1.8,-4 -1.9,-4 V 74.4 64.3 l 2.3,-4.2 2.2,-4.3 4.3,-2.4 4.3,-2.4 h 8.7 8.8 l 2.2,1.6 2.2,1.5 v 2.8 2.7 l -1.1,1.1 -1.1,1.1 -8.2,-0.5 -8.3,-0.6 -2.1,2.4 -2.2,2.3 v 9.2 9.1 l 2.1,2.7 2,2.6 h 3.4 3.3 l 0.4,-3.5 0.4,-3.5 -1,-1 -1,-1 h -2.3 -2.3 v -4 -4 l 2.3,-0.5 c 1.2,-0.3 5.2,-0.5 8.7,-0.3 l 6.5,0.3 v 12 12 l -2.8,1.3 -2.8,1.4 -7.2,0.4 -7.2,0.4 z m 18.9,-2.4 3.5,-1.5 V 83.6 73 h -7.4 -7.5 l -0.6,1 -0.6,1 0.6,1.9 0.6,2 2.7,0.3 2.7,0.3 0.3,5.3 0.3,5.2 h -5 -5 l -1.9,-2 -1.9,-2.1 -0.7,-6.2 -0.6,-6.2 0.9,-5.4 0.9,-5.4 1.8,-1.4 1.8,-1.3 h 8.8 8.8 v -1.4 c 0,-0.8 0.3,-2.1 0.6,-2.9 l 0.5,-1.5 -5.1,-1.2 -5.1,-1.2 -5.3,0.4 -5.3,0.4 -3.9,2 -3.9,2 -2,4 -2,3.9 V 75 85.5 l 2.1,3.5 2,3.5 3.4,2.2 3.3,2.3 h 7.4 7.4 z"
         id="path50" />
      <path
         d="m 285.5,97.2 -4.1,-1.9 -1.5,-2.4 c -0.9,-1.3 -2.1,-4.5 -2.7,-7.1 L 276,81.1 V 68 54.9 l 1,-2 1.1,-1.9 h 4.4 4.4 l 1.1,1.9 1,2 v 15.3 15.4 l 1.2,1.2 1.2,1.2 h 3.3 3.2 l 1.3,-2.2 1.2,-2.3 0.5,-16 0.6,-16 h 5 5 l 0.3,17.2 0.2,17.2 -2,4.4 -2,4.3 -3.1,1.8 -3.1,1.8 -6.2,0.5 -6.1,0.4 z m 18.6,-2.5 3.4,-2.3 1.5,-2.9 1.5,-3 V 70 53.5 h -4 -4 l -0.5,16.1 -0.5,16.2 -1.9,2.1 -1.9,2.1 h -3.1 l -3.1,-0.1 -2,-1.5 -2,-1.5 -0.5,-16.7 -0.5,-16.7 h -4 -4 v 16 16 l 0.7,2.6 c 0.9,2.9 3.4,6 6.3,7.7 l 2,1.1 6.6,0.1 h 6.6 z"
         id="path52" />
      <path
         d="m 371.5,98.3 c -3,-0.8 -7.2,-4 -9.5,-7.4 l -2.2,-2.9 -0.9,-6.9 -1,-6.9 1,-6.2 1,-6.3 2.3,-3.3 2.2,-3.3 3.9,-2 3.9,-2.1 h 5.8 5.8 l 3.3,1.4 3.4,1.4 2.1,2.4 c 1.2,1.2 2.7,3.3 3.3,4.6 l 1.2,2.3 0.6,6.8 0.6,6.8 -0.7,5.6 -0.7,5.6 -2.2,3.2 -2.2,3.3 -3.3,1.9 -3.3,1.9 -6.2,0.4 c -3.4,0.1 -7.1,0 -8.2,-0.3 z m 16.5,-2.8 2.8,-1.5 2.2,-3 2.1,-3 1.1,-6.5 1.1,-6.5 -1.1,-6.7 -1.1,-6.6 -2.8,-3.5 -2.8,-3.4 -4.5,-1.5 -4.4,-1.5 -4.1,0.4 -4.1,0.5 -3.5,1.7 -3.6,1.7 -2.4,4.2 -2.4,4.2 V 75 85.5 l 2.1,3.5 2,3.5 3.4,2.2 3.3,2.3 h 6.9 6.9 z"
         id="path54" />
      <path
         d="m 372.7,88 -2.5,-2 -0.7,-6 -0.7,-6 0.7,-4.9 0.7,-4.9 1.9,-2.1 2,-2.1 h 3.8 3.9 l 2.1,1.7 2.1,1.8 1.2,5.8 1.2,5.7 -1.2,5.7 -1.2,5.8 -2.2,1.7 -2.3,1.8 h -3.1 -3.1 z m 10.6,-1.5 1.5,-1.4 0.7,-5 0.7,-4.9 -0.7,-5.6 -0.7,-5.7 -2.1,-1.4 -2.1,-1.5 h -2.7 -2.8 l -2,2.6 -2.1,2.7 v 8.8 8.9 l 2,2 2,2 h 3.4 3.5 z"
         id="path56" />
      <path
         d="m 533.5,98.1 c -1.6,-0.5 -4.2,-1.3 -5.7,-1.9 L 525,95 v -2 c 0,-1.2 0.7,-3.4 1.5,-5.1 l 1.6,-2.9 1.7,0.9 c 1,0.5 4.5,1.2 7.7,1.6 l 6,0.6 1.5,-1 1.5,-1 -1.1,-1.8 -1.1,-1.8 -7.4,-4 -7.3,-4 -2.3,-3.4 -2.3,-3.4 v -3.2 -3.2 l 2.3,-3.3 2.2,-3.4 3,-1.7 3,-1.8 h 7.3 l 7.3,-0.1 2.9,1.5 3,1.6 V 56 c 0,1 -0.5,3.1 -1.2,4.5 l -1.2,2.7 -2.5,-0.7 c -1.5,-0.3 -4.6,-0.8 -7.1,-1.1 l -4.6,-0.6 -1.3,1.6 -1.3,1.6 1.2,1.5 c 0.7,0.8 4,2.8 7.4,4.5 l 6.1,2.9 2.1,2.3 c 1.2,1.3 2.7,3.3 3.3,4.5 l 1.1,2.2 v 2.9 2.9 l -2.2,3.3 c -1.3,1.8 -3.5,4.2 -4.9,5.2 l -2.6,2 -5.9,0.3 -5.9,0.4 z m 16.6,-3.4 3.4,-2.3 1.3,-2.4 1.3,-2.5 -0.4,-4.4 -0.5,-4.3 -2.1,-2.2 C 551.9,75.5 548,72.9 544.3,71 l -6.6,-3.5 -1.1,-1.7 -1.1,-1.8 1.1,-1.7 1.2,-1.8 7.5,0.1 7.6,0.1 0.6,-2.9 c 0.4,-1.6 0.5,-3.1 0.2,-3.4 -0.2,-0.2 -3,-1 -6.1,-1.6 l -5.6,-1.2 -4.8,1.2 -4.7,1.2 -2.7,3 -2.8,3 v 4.4 4.3 l 2,2.5 1.9,2.5 6.9,3.6 c 3.8,2 7.5,4.3 8.2,5.2 l 1.2,1.5 -0.6,2.5 -0.6,2.5 -2.6,0.6 -2.6,0.7 -6.1,-1.5 -6.2,-1.5 -1.3,3 -1.3,2.9 0.6,0.7 c 0.4,0.3 2.1,1.1 3.8,1.8 l 3.2,1.1 6.6,0.1 6.6,0.1 z"
         id="path58" />
      <path
         d="m 573,97.5 c -6.8,-3.1 -9,-6.6 -11.1,-17.6 l -1.2,-6.6 1.1,-3.3 c 0.7,-1.8 1.2,-4.4 1.2,-5.7 V 62 l 2.3,-3.5 2.2,-3.4 3.8,-2 3.9,-2.1 h 8.3 8.3 l 2.2,1.8 2.3,1.8 -1.3,3.6 -1.3,3.7 -6.9,-0.6 -6.9,-0.6 -2.4,1.3 -2.3,1.2 -0.7,5.8 -0.7,5.8 0.7,5.6 0.7,5.7 2.5,1.6 2.4,1.6 4.2,-1.3 c 2.3,-0.6 5.2,-1.6 6.4,-2 l 2.1,-0.9 1.5,1.7 1.6,1.7 0.3,3 0.3,3 -3.8,1.9 -3.9,1.8 -6.1,0.4 -6.2,0.4 z m 17.2,-1.7 4,-1.2 0.5,-1.4 0.6,-1.3 -1.1,-2.4 -1.1,-2.4 -4.8,1.4 c -2.6,0.8 -6.2,1.5 -7.9,1.5 h -3.1 l -1.5,-1.7 -1.6,-1.8 -1.1,-4 c -1.4,-5.1 -1.4,-10.5 0,-16.1 l 1.2,-4.5 1.9,-1 1.9,-1 7.2,0.2 7.1,0.2 0.8,-2.8 0.7,-2.9 -1.2,-0.8 c -0.6,-0.4 -3.7,-1 -6.7,-1.4 l -5.5,-0.7 -4.5,1.2 -4.5,1.2 -2.7,2.6 -2.8,2.6 -1.2,3.6 -1.2,3.6 v 9 l 0.1,9 2.2,4.3 2.2,4.3 3.2,1.9 3.2,2 h 5.9 5.9 z"
         id="path60" />
      <path
         d="M 233.2,96.8 232,95.6 v -20 -20.1 l 0.6,-2.2 0.6,-2.3 h 11.5 11.5 l 3.9,2.2 3.9,2.2 2,4.1 2,4.1 v 2.7 2.8 l -1.4,3.3 -1.4,3.3 -2.8,2.6 -2.8,2.7 1.8,3.2 c 1.1,1.8 3.2,5.3 4.8,7.7 l 2.9,4.4 -1.3,0.8 -1.3,0.9 h -4.7 -4.7 l -1.8,-2.3 c -1,-1.3 -2.9,-4.7 -4.2,-7.5 l -2.4,-5.1 -1.4,-0.6 -1.5,-0.5 -0.9,0.6 -0.9,0.5 v 6.9 6.8 l -1.6,0.6 c -0.9,0.3 -3,0.6 -4.8,0.6 h -3.2 z m 8.8,-7.8 0.5,-7.5 h 3.3 3.4 l 3.6,7 c 2,3.9 4.2,7.3 4.7,7.7 1.2,0.9 7.9,1.1 8.7,0.2 l 0.6,-0.6 -4.9,-7.6 -4.9,-7.7 4.1,-3.5 4.2,-3.6 0.4,-5 0.5,-5.1 -1.7,-3.6 -1.7,-3.6 -4.4,-2 L 254,52 h -4.7 c -2.7,0 -7.2,0.3 -10,0.6 l -5.3,0.7 v 21.9 21.9 l 3.8,-0.3 3.7,-0.3 z"
         id="path62" />
      <path
         d="M 243.8,73 242,71.9 v -5.2 -5.3 l 1.2,-1.2 1.2,-1.2 h 4.8 4.8 l 1.6,2.5 1.7,2.5 -0.6,3.7 c -0.4,2 -1.1,4.1 -1.6,4.6 l -0.9,0.9 -4.4,0.4 -4.3,0.5 z m 10.7,-6.5 v -5 h -5 -5 l -0.3,5.3 -0.3,5.3 5.3,-0.3 5.3,-0.3 z"
         id="path64" />
      <path
         d="m 322.4,97.2 -1.1,-0.7 V 75 l -0.1,-21.5 1,-1.2 1,-1.3 h 11.1 11 l 3.5,2.6 3.4,2.7 1.4,3.3 1.4,3.3 v 4.6 4.6 l -1.4,3.3 -1.4,3.3 -3.4,2.7 -3.5,2.6 h -6.1 -6.2 v 5.4 c 0,3 -0.3,6.1 -0.6,7 l -0.6,1.6 h -4.2 -4.1 z m 9.4,-7.4 0.3,-6.8 h 5.5 5.5 l 2.9,-1.5 2.8,-1.5 2.1,-2.9 2.1,-2.9 v -7 -6.9 l -2.1,-2.7 -2.1,-2.7 -3.5,-1.4 -3.5,-1.5 H 337 c -2.6,0 -6.8,0.3 -9.4,0.6 l -4.6,0.7 v 21.2 21.2 l 0.7,0.7 0.7,0.7 3.6,-0.3 3.5,-0.3 z"
         id="path66" />
      <path
         d="m 333.2,75.1 -1.3,-0.8 0.3,-7.4 0.3,-7.4 3.4,-0.3 3.4,-0.4 2.4,1.3 2.3,1.2 v 6.4 6.3 l -2.6,1 c -3.1,1.2 -6.4,1.3 -8.2,0.1 z m 8.6,-2.3 1.2,-1.2 v -4.1 -4.1 l -1.2,-1.2 -1.2,-1.2 h -3.8 -3.8 v 6.5 6.5 h 3.8 3.8 z"
         id="path68" />
      <path
         d="M 421.3,97.4 420,96.8 V 75.6 54.4 l 1.3,-1.7 1.2,-1.8 13,0.3 13,0.3 v 5 5 l -8,0.1 -8,0.1 -0.3,4.2 -0.3,4.1 h 7.5 7.6 v 5 5 h -7.5 -7.4 l -0.3,8.8 -0.3,8.7 -4.5,0.2 c -2.5,0.1 -5.1,0 -5.7,-0.3 z m 9.7,-9.9 0.5,-9 7.3,-0.3 7.2,-0.3 V 74.5 71 h -7.6 -7.5 l 0.3,-5.2 0.3,-5.3 8.3,-0.3 8.3,-0.3 -0.3,-3.2 -0.3,-3.2 H 435 422.5 L 422.2,74 c -0.1,11.2 0,21 0.3,21.8 l 0.5,1.3 3.7,-0.3 3.8,-0.3 z"
         id="path70" />
      <path
         d="m 449.5,97.1 -0.5,-1 0.9,-3.8 c 1.1,-4.2 2.7,-10.2 4.1,-14.8 2.5,-8.6 5.1,-17.7 5.7,-20.5 0.3,-1.4 1.2,-3.3 2.1,-4.2 l 1.5,-1.8 h 4.6 4.6 l 1.2,0.8 1.2,0.7 1.4,4.5 c 3.3,10.2 7.6,25.9 8.4,30.3 l 0.5,2.7 h 0.9 c 0.5,0 1.1,-0.6 1.3,-1.2 0.2,-0.7 0.9,-3.3 1.6,-5.8 0.6,-2.5 1.6,-5.3 2.1,-6.2 0.5,-1 0.9,-2.9 0.9,-4.2 v -2.5 l 1,-0.6 1,-0.6 v -2.5 c 0,-1.3 0.4,-3.2 0.9,-4.2 0.5,-0.9 1.5,-3.7 2.3,-6.2 l 1.5,-4.5 4.3,-0.3 c 2.4,-0.2 5.4,-0.1 6.7,0.3 L 512,52 v 2 1.9 l 1,0.6 1,0.6 v 2.9 2.9 l 0.9,0.5 c 0.5,0.3 1.1,1.8 1.4,3.3 0.3,1.6 1,4.4 1.5,6.3 0.6,1.9 2.2,7.9 3.6,13.3 l 2.7,9.8 -0.6,0.9 -0.6,1 h -4.3 -4.4 L 513,96.5 c -0.7,-0.8 -1.6,-3 -1.9,-4.8 l -0.7,-3.2 -5.5,-0.3 -5.6,-0.3 -0.6,3.6 c -0.3,2 -1.1,4.3 -1.8,5.1 L 495.8,98 H 487 c -4.9,0 -9.5,-0.3 -10.4,-0.6 L 475,96.8 v -2.7 -2.7 l -1.3,-1.8 -1.3,-1.7 -4.9,0.3 -4.9,0.3 -0.9,3.5 c -0.5,1.9 -1.3,4.1 -1.9,4.8 l -1,1.2 h -4.4 -4.3 z m 10.7,-4.8 1.4,-4.8 5.8,-0.3 5.8,-0.3 1.4,1.2 1.4,1.1 v 2.8 2.8 l 1.4,1.1 1.4,1.2 8.4,-0.3 8.3,-0.3 1.5,-4.7 1.5,-4.8 h 6.3 6.3 l 0.5,1.8 c 0.3,0.9 1.2,3.2 2,5 L 515,97 h 3.3 c 1.9,0 3.6,-0.2 3.9,-0.5 l 0.5,-0.6 -6.1,-21.2 -6.1,-21.2 h -5.4 -5.3 l -1.3,3.5 c -0.7,1.9 -1.8,5.3 -2.4,7.5 -1.3,4.7 -4.2,14.5 -6.8,22.9 l -1.8,6 -1.2,0.3 -1.2,0.4 -0.7,-2.8 c -0.3,-1.5 -2.1,-8.2 -4,-14.8 -1.9,-6.6 -3.9,-13.8 -4.5,-16 -0.6,-2.2 -1.4,-4.7 -1.9,-5.5 l -0.7,-1.5 h -5.3 -5.3 l -1.9,6 c -1,3.3 -2.3,7.8 -2.9,10 -0.6,2.2 -1.5,5.1 -1.9,6.5 -0.4,1.4 -1.3,4.5 -2,7 -0.7,2.5 -1.6,5.5 -2.1,6.8 -0.5,1.3 -0.9,3.4 -0.9,4.7 V 97 h 3.9 4 z"
         id="path72" />
      <path
         d="m 464.5,74.3 c 0.4,-2.7 1.3,-6.3 2.1,-8.2 l 1.4,-3.4 0.7,0.7 c 1,1 3.2,9.6 3.3,12.9 V 79 h -4.1 -4.1 z m 6.1,1 c -0.4,-1.6 -1,-4.1 -1.3,-5.7 l -0.6,-2.9 -1.3,2.4 -1.3,2.4 -0.1,3.3 V 78 h 2.6 2.6 z"
         id="path74" />
      <path
         d="m 501,76.8 c 0,-2.6 2.6,-12.7 3.4,-13.6 l 0.6,-0.5 0.6,0.5 c 0.3,0.3 1.2,3.4 2,6.9 l 1.5,6.3 -0.5,1.3 -0.5,1.3 h -3.6 -3.5 z m 5.6,-4 c -0.4,-2.8 -1,-5.6 -1.3,-6.2 l -0.7,-1 -1.2,5.4 c -1.4,6.2 -1.2,7 1.8,7 h 2.1 z"
         id="path76" />
    </g>
  </g>
</svg>
